<svg xmlns="http://www.w3.org/2000/svg" width="45" height="45" viewBox="0 0 45 45">
  <g id="Gruppe_33" data-name="Gruppe 33" transform="translate(0 0)">
    <path id="Vereinigungsmenge_1" data-name="Vereinigungsmenge 1" d="M0,22.5A22.5,22.5,0,0,1,21.923.007V0H45V23.077h-.007A22.5,22.5,0,0,1,0,22.5Z" transform="translate(0 0)" fill="#fff"/>
    <path id="Icon_ionic-md-person" data-name="Icon ionic-md-person" d="M15.359,15.359A5.43,5.43,0,1,0,9.93,9.93,5.446,5.446,0,0,0,15.359,15.359Zm0,2.715c-3.6,0-10.859,1.833-10.859,5.43v2.715H26.219V23.5C26.219,19.907,18.956,18.074,15.359,18.074Z" transform="translate(6.911 6.845)" fill="#29497c"/>
  </g>
</svg>
