<svg xmlns="http://www.w3.org/2000/svg" width="27" height="27" viewBox="0 0 27 27">
  <g id="Gruppe_33" data-name="Gruppe 33" transform="translate(-629 -135.024)">
    <path id="Vereinigungsmenge_1" data-name="Vereinigungsmenge 1" d="M0,13.5A13.5,13.5,0,0,1,13.154,0V0H27V13.846h0A13.5,13.5,0,0,1,0,13.5Z" transform="translate(629 135.024)" fill="#29497c"/>
    <path id="Icon_ionic-md-person" data-name="Icon ionic-md-person" d="M11.083,11.083A3.291,3.291,0,1,0,7.791,7.791,3.3,3.3,0,0,0,11.083,11.083Zm0,1.646C8.9,12.728,4.5,13.839,4.5,16.02v1.646H17.665V16.02C17.665,13.839,13.263,12.728,11.083,12.728Z" transform="translate(631.417 137.441)" fill="#fff"/>
  </g>
</svg>
